<svg version="1.1" id="Layer_1" xmlns="http://www.w3.org/2000/svg" xmlns:xlink="http://www.w3.org/1999/xlink" x="0px" y="0px"
	 width="100%" viewBox="0 0 500 500" enable-background="new 0 0 500 500" xml:space="preserve">
<path fill="#2C2C2C" opacity="1.000000" stroke="none" 
	d="
M331.000000,501.000000 
	C220.666687,501.000000 110.833389,501.000000 1.000059,501.000000 
	C1.000039,334.333405 1.000039,167.666794 1.000020,1.000148 
	C167.666565,1.000099 334.333130,1.000099 500.999756,1.000049 
	C500.999847,167.666519 500.999847,334.333038 500.999939,500.999786 
	C444.500000,501.000000 388.000000,501.000000 331.000000,501.000000 
M283.500122,334.169281 
	C324.605957,334.169281 365.711792,334.169281 407.003937,334.169281 
	C407.003937,321.432404 407.003937,309.196259 407.003937,296.528687 
	C374.314545,296.528687 341.888123,296.528687 308.990479,296.528687 
	C308.990479,226.872589 308.990479,157.646759 308.990479,88.300919 
	C293.464661,88.300919 278.415039,88.300919 263.333862,88.300919 
	C263.333862,170.331192 263.333862,252.057953 263.333862,334.169281 
	C269.902557,334.169281 276.201447,334.169281 283.500122,334.169281 
M154.592865,334.157928 
	C179.309311,327.503448 195.682816,311.995575 204.178894,287.877350 
	C209.237747,273.516571 210.643173,258.669922 210.667404,243.635468 
	C210.747971,193.660568 210.698441,143.685471 210.698807,93.710449 
	C210.698807,91.932831 210.698807,90.155220 210.698807,88.276871 
	C195.129807,88.276871 180.218460,88.276871 164.853958,88.276871 
	C164.853958,90.510559 164.853973,92.469681 164.853973,94.428810 
	C164.854034,143.904083 164.885544,193.379395 164.815048,242.854553 
	C164.806046,249.173248 164.512787,255.514236 163.927383,261.805450 
	C161.499786,287.894867 147.993805,299.839691 121.735321,298.984558 
	C116.625488,298.818146 111.569901,297.309692 106.452682,296.966888 
	C99.539673,296.503845 96.214737,299.355957 95.399994,306.239410 
	C94.500160,313.841736 93.816483,321.477509 93.375580,329.118195 
	C93.305679,330.329468 94.817413,332.539917 95.921341,332.776001 
	C115.095963,336.876617 134.363312,339.048828 154.592865,334.157928 
M119.994614,434.388763 
	C115.730110,435.993408 111.465607,437.598053 107.147972,439.222687 
	C107.147972,433.935577 107.172401,428.478973 107.142616,423.022644 
	C107.089127,413.224304 108.353386,414.349396 98.146927,415.301819 
	C96.153664,415.487823 94.269058,416.838196 92.334335,417.651520 
	C94.234108,418.506592 96.138268,419.352234 98.028732,420.227417 
	C98.301285,420.353577 98.507980,420.621979 98.780579,420.854828 
	C98.780579,438.592377 98.780579,456.347565 98.780579,472.822968 
	C96.626434,474.950195 95.226418,476.332703 93.826408,477.715210 
	C94.170090,478.053619 94.513779,478.392029 94.857460,478.730438 
	C100.787918,478.730438 106.718369,478.730438 112.648819,478.730438 
	C112.906937,478.235382 113.165054,477.740356 113.423164,477.245300 
	C111.498817,475.970703 109.574463,474.696106 107.221649,473.137695 
	C107.221649,466.229706 107.221504,458.745819 107.221695,451.261932 
	C107.221886,443.994751 110.701744,440.429260 118.224464,439.987854 
	C123.461395,439.680573 126.456078,441.626312 126.699471,446.858215 
	C127.121521,455.930206 126.816673,465.036041 126.816673,472.799286 
	C124.491798,474.909027 122.986847,476.274750 121.481888,477.640472 
	C121.810211,478.015045 122.138527,478.389618 122.466850,478.764191 
	C128.572647,478.764191 134.678452,478.764191 140.784256,478.764191 
	C141.046188,478.376892 141.308136,477.989624 141.570068,477.602325 
	C140.506149,476.678009 139.337082,475.847656 138.405365,474.805206 
	C137.285431,473.552185 135.560867,472.156067 135.495895,470.756927 
	C135.133209,462.947968 135.433853,455.107452 135.048508,447.300415 
	C134.557327,437.348785 130.834076,434.132355 119.994614,434.388763 
M187.772232,450.734222 
	C187.655594,449.409027 187.589691,448.077118 187.414337,446.759735 
	C185.963531,435.860779 180.334732,432.014862 169.737869,435.074707 
	C166.133041,436.115631 162.786041,438.049408 160.443115,439.081146 
	C158.543762,437.315094 157.145264,435.012512 155.282700,434.540283 
	C153.030212,433.969208 150.352219,434.799438 147.926559,435.333008 
	C147.032883,435.529602 145.704300,436.598358 145.692947,437.287750 
	C145.675995,438.317596 146.414230,439.668976 147.263168,440.321808 
	C148.215149,441.053772 149.648148,441.160095 151.114548,441.613739 
	C151.114548,447.097443 151.114563,452.406342 151.114563,457.715271 
	C151.114563,463.161438 151.114548,468.607574 151.114548,472.500214 
	C148.627869,474.905273 147.182098,476.303589 145.736328,477.701935 
	C146.068588,478.083130 146.400848,478.464355 146.733093,478.845551 
	C152.687347,478.845551 158.641602,478.845551 166.345779,478.845551 
	C164.565689,476.878998 163.599365,475.898071 162.734940,474.834351 
	C161.677460,473.533112 159.900223,472.201019 159.833847,470.815216 
	C159.523636,464.338501 159.695023,457.838745 159.695053,451.347198 
	C159.695084,443.863708 163.865921,439.917267 171.554932,439.966125 
	C175.711838,439.992523 178.602158,442.008026 178.749512,446.009369 
	C179.095886,455.414825 178.860428,464.841736 178.860428,472.746948 
	C176.614868,475.031250 175.276749,476.392487 173.938644,477.753693 
	C174.247421,478.114990 174.556198,478.476318 174.864990,478.837646 
	C180.802811,478.837646 186.740646,478.837646 192.672958,478.837646 
	C192.956207,475.341858 192.956207,475.341858 187.792374,473.897766 
	C187.792374,466.590271 187.792374,459.136505 187.772232,450.734222 
M268.058960,472.167542 
	C273.145477,481.580292 280.686066,482.341461 293.483551,474.733948 
	C294.527008,479.576385 301.500000,481.983429 305.157562,478.596375 
	C305.647827,478.142365 305.217682,476.051361 304.570984,475.215942 
	C304.052795,474.546478 302.559204,474.632050 301.093109,474.287170 
	C301.093109,464.723755 301.353485,455.400909 301.009705,446.100403 
	C300.740723,438.823181 297.531799,434.901794 290.337341,434.849152 
	C284.258759,434.804688 278.091522,436.759552 272.102448,438.352020 
	C268.442566,439.325165 268.755432,441.688629 270.915192,443.642334 
	C275.206757,442.560181 278.987488,441.112640 282.873352,440.728119 
	C291.399292,439.884460 294.270599,443.430145 292.608337,452.371002 
	C289.909088,452.670990 287.081940,452.795441 284.339386,453.343201 
	C281.583008,453.893738 278.831787,454.664307 276.216705,455.690979 
	C268.576782,458.690369 266.206085,463.301453 268.058960,472.167542 
M60.896965,435.167908 
	C48.392921,440.802246 43.338749,454.168610 48.533009,467.829620 
	C51.445938,475.490753 57.055672,479.474976 65.167160,479.902405 
	C79.571945,480.661346 89.193481,468.852509 87.266060,452.865234 
	C85.514961,438.340424 75.782860,431.536194 60.896965,435.167908 
M480.056183,439.685181 
	C477.477234,438.062469 475.093689,435.767487 472.280731,434.949738 
	C465.320526,432.926483 458.860352,435.357574 452.593323,438.352203 
	C449.231659,439.958496 449.702057,441.758087 451.701233,443.719604 
	C455.646881,442.655975 459.248535,441.219849 462.968719,440.774933 
	C471.891785,439.707764 474.745911,442.875793 473.688080,451.651306 
	C467.667847,453.141968 461.638580,454.258331 455.877380,456.178894 
	C451.148926,457.755157 448.246307,461.394409 448.025665,466.691681 
	C447.598785,476.941895 457.751282,483.026947 467.786896,478.461151 
	C469.969269,477.468292 471.985809,476.110870 474.147034,474.882538 
	C475.563080,479.685760 482.920685,481.743896 486.052551,478.446869 
	C486.483551,477.993134 485.872284,475.981293 485.173767,475.200531 
	C484.604401,474.564087 483.183044,474.689819 482.061401,474.461761 
	C482.061401,468.931458 482.270905,463.764496 482.007080,458.621796 
	C481.694366,452.526642 480.973785,446.452362 480.056183,439.685181 
M217.833145,477.569946 
	C219.037277,478.054993 220.229279,478.919800 221.447647,478.958679 
	C226.438507,479.117889 231.437408,479.025360 236.433350,479.025391 
	C244.207443,479.025452 251.981522,479.025421 259.835724,479.025421 
	C260.756195,472.721680 261.587219,467.030640 262.387787,461.548218 
	C259.001678,459.928070 257.184967,460.536102 256.363190,463.815216 
	C255.759430,466.224304 254.904617,468.598297 253.884552,470.863129 
	C253.400391,471.938110 252.297943,473.481506 251.426117,473.514771 
	C245.356903,473.746155 239.274689,473.637024 232.881622,473.637024 
	C232.881622,459.575531 232.958511,445.772797 232.834259,431.971924 
	C232.797516,427.891632 232.562820,424.199310 238.425797,424.688660 
	C239.074829,424.742798 239.872116,423.020782 240.600647,422.122528 
	C239.754639,421.538391 238.919083,420.466095 238.060959,420.447693 
	C231.468887,420.306549 224.872437,420.370148 218.277344,420.370148 
	C217.991043,420.882172 217.704758,421.394165 217.418457,421.906189 
	C218.419540,422.908325 219.402359,424.741089 220.424957,424.763550 
	C224.132385,424.844971 224.197983,427.015686 224.181885,429.747040 
	C224.115143,441.070770 224.154221,452.395142 224.154388,463.719269 
	C224.154449,467.150421 224.154388,470.581573 224.154388,473.066223 
	C221.430389,474.667938 219.623917,475.730133 217.833145,477.569946 
M354.662537,435.975891 
	C344.542450,441.139984 342.309601,450.140839 343.048706,460.393097 
	C343.588348,467.878723 346.177429,474.534607 353.422699,477.969971 
	C361.120911,481.620117 368.716553,480.260345 375.757965,475.939728 
	C376.871918,475.256195 377.104004,473.135406 377.743805,471.679138 
	C370.230347,473.984650 363.811707,476.511108 357.579407,471.940765 
	C352.871429,468.488281 351.510437,463.230347 352.005646,456.850647 
	C361.153931,456.850647 369.873810,456.850647 379.005646,456.850647 
	C379.005646,453.607452 379.145905,450.961700 378.980011,448.335266 
	C378.428131,439.598663 372.847076,434.135559 364.139130,434.147797 
	C361.217926,434.151886 358.298035,435.131012 354.662537,435.975891 
M327.470459,423.072388 
	C331.592987,422.159698 335.715546,421.247009 340.338226,420.223602 
	C341.416473,414.081146 340.532654,413.102264 333.319489,414.012268 
	C325.074524,415.052490 318.538116,422.427338 317.808502,431.109070 
	C317.672241,432.730530 316.638123,434.548492 315.471710,435.740936 
	C314.087067,437.156372 312.111267,437.993500 310.391663,439.081238 
	C312.299835,439.626404 314.210480,440.163116 316.114288,440.722931 
	C316.572235,440.857635 317.007507,441.069366 317.530640,441.276306 
	C317.530640,452.218903 317.530640,463.114563 317.530640,473.913666 
	C311.376770,475.590302 311.376770,475.590302 311.692688,478.754028 
	C319.295654,478.754028 326.904083,478.754028 334.887787,478.754028 
	C334.594360,472.017700 328.340759,476.769318 326.321228,473.460754 
	C326.321228,462.968872 326.321228,452.034332 326.321228,440.620331 
	C329.869232,440.620331 333.143372,440.620331 336.906494,440.620331 
	C336.818085,438.596649 336.751740,437.077576 336.664307,435.075958 
	C332.927948,435.075958 329.672607,435.075958 325.619507,435.075958 
	C326.152771,430.933960 326.610931,427.375641 327.470459,423.072388 
M26.215017,487.735260 
	C30.881737,483.596741 32.780407,478.232300 32.935272,472.174438 
	C33.075623,466.684448 33.079594,461.190277 33.091976,455.697876 
	C33.114395,445.752563 33.098328,435.807190 33.098328,426.003906 
	C40.118317,424.047943 40.118317,424.047943 39.578884,420.652496 
	C32.172337,420.652496 24.764215,420.652496 17.356092,420.652496 
	C17.070980,421.135925 16.785870,421.619324 16.500757,422.102753 
	C17.792639,423.055328 19.046440,424.748230 20.383776,424.817017 
	C23.923393,424.999084 24.765373,426.556427 24.711603,429.846375 
	C24.502195,442.659485 24.608850,455.477448 24.453686,468.291840 
	C24.343042,477.429535 22.930399,486.019775 12.756558,490.680389 
	C14.631614,491.798584 16.440964,492.738220 17.757557,492.275574 
	C20.526411,491.302612 23.036661,489.593750 26.215017,487.735260 
M434.768860,415.059143 
	C431.975159,415.118195 429.136230,414.895630 426.403503,415.334412 
	C424.556183,415.631073 422.858398,416.859039 421.093719,417.670441 
	C422.815155,418.532684 424.541321,419.385803 426.253357,420.266327 
	C426.533539,420.410400 426.751617,420.675323 427.379395,421.207153 
	C427.379395,437.837952 427.443207,454.789795 427.225372,471.738007 
	C427.211884,472.787079 424.960846,473.784790 423.788910,474.848358 
	C422.734497,475.805206 421.732422,476.819763 420.707275,477.808838 
	C421.029694,478.142639 421.352142,478.476410 421.674561,478.810211 
	C428.438812,478.810211 435.203064,478.810211 442.148529,478.810211 
	C443.543671,472.819336 437.550385,476.191956 435.891998,472.735596 
	C435.891998,459.915253 435.938568,445.955444 435.868713,431.996246 
	C435.841370,426.536194 435.552582,421.077454 434.768860,415.059143 
M391.878235,472.033752 
	C390.699097,473.009460 389.486084,473.947662 388.351074,474.972290 
	C387.370239,475.857727 386.478058,476.841309 384.588165,478.749146 
	C394.230194,478.749146 401.992371,478.749146 410.196747,478.749146 
	C409.086914,471.974762 402.905121,476.913025 400.052460,473.205078 
	C400.052460,465.408173 399.939270,456.779816 400.181152,448.161438 
	C400.215271,446.945618 401.772278,445.078827 402.985107,444.714691 
	C407.309601,443.416199 411.789734,442.636078 416.968811,441.492401 
	C416.668610,439.707611 416.222412,437.055176 415.776245,434.402740 
	C412.748413,434.960754 409.497498,435.012115 406.755432,436.219299 
	C404.011627,437.427216 401.776398,439.790314 399.217010,441.723511 
	C398.620056,432.736176 398.782562,434.113708 391.108368,435.013275 
	C390.281952,435.110138 389.303680,434.945038 388.661224,435.336731 
	C387.688751,435.929596 386.337891,436.864990 386.281494,437.728851 
	C386.224121,438.608124 387.384003,439.794373 388.296967,440.444275 
	C389.175354,441.069550 390.419800,441.180511 391.885132,441.636139 
	C391.885132,451.516754 391.885132,461.314453 391.878235,472.033752 
z"/>
<path fill="#EBEFF0" opacity="1.000000" stroke="none" 
	d="
M283.000244,334.169281 
	C276.201447,334.169281 269.902557,334.169281 263.333862,334.169281 
	C263.333862,252.057953 263.333862,170.331192 263.333862,88.300919 
	C278.415039,88.300919 293.464661,88.300919 308.990479,88.300919 
	C308.990479,157.646759 308.990479,226.872589 308.990479,296.528687 
	C341.888123,296.528687 374.314545,296.528687 407.003937,296.528687 
	C407.003937,309.196259 407.003937,321.432404 407.003937,334.169281 
	C365.711792,334.169281 324.605957,334.169281 283.000244,334.169281 
z"/>
<path fill="#EFC30F" opacity="1.000000" stroke="none" 
	d="
M154.192429,334.254639 
	C134.363312,339.048828 115.095963,336.876617 95.921341,332.776001 
	C94.817413,332.539917 93.305679,330.329468 93.375580,329.118195 
	C93.816483,321.477509 94.500160,313.841736 95.399994,306.239410 
	C96.214737,299.355957 99.539673,296.503845 106.452682,296.966888 
	C111.569901,297.309692 116.625488,298.818146 121.735321,298.984558 
	C147.993805,299.839691 161.499786,287.894867 163.927383,261.805450 
	C164.512787,255.514236 164.806046,249.173248 164.815048,242.854553 
	C164.885544,193.379395 164.854034,143.904083 164.853973,94.428810 
	C164.853973,92.469681 164.853958,90.510559 164.853958,88.276871 
	C180.218460,88.276871 195.129807,88.276871 210.698807,88.276871 
	C210.698807,90.155220 210.698807,91.932831 210.698807,93.710449 
	C210.698441,143.685471 210.747971,193.660568 210.667404,243.635468 
	C210.643173,258.669922 209.237747,273.516571 204.178894,287.877350 
	C195.682816,311.995575 179.309311,327.503448 154.192429,334.254639 
z"/>
<path fill="#E8ECED" opacity="1.000000" stroke="none" 
	d="
M120.409920,434.325256 
	C130.834076,434.132355 134.557327,437.348785 135.048508,447.300415 
	C135.433853,455.107452 135.133209,462.947968 135.495895,470.756927 
	C135.560867,472.156067 137.285431,473.552185 138.405365,474.805206 
	C139.337082,475.847656 140.506149,476.678009 141.570068,477.602325 
	C141.308136,477.989624 141.046188,478.376892 140.784256,478.764191 
	C134.678452,478.764191 128.572647,478.764191 122.466850,478.764191 
	C122.138527,478.389618 121.810211,478.015045 121.481888,477.640472 
	C122.986847,476.274750 124.491798,474.909027 126.816673,472.799286 
	C126.816673,465.036041 127.121521,455.930206 126.699471,446.858215 
	C126.456078,441.626312 123.461395,439.680573 118.224464,439.987854 
	C110.701744,440.429260 107.221886,443.994751 107.221695,451.261932 
	C107.221504,458.745819 107.221649,466.229706 107.221649,473.137695 
	C109.574463,474.696106 111.498817,475.970703 113.423164,477.245300 
	C113.165054,477.740356 112.906937,478.235382 112.648819,478.730438 
	C106.718369,478.730438 100.787918,478.730438 94.857460,478.730438 
	C94.513779,478.392029 94.170090,478.053619 93.826408,477.715210 
	C95.226418,476.332703 96.626434,474.950195 98.780579,472.822968 
	C98.780579,456.347565 98.780579,438.592377 98.780579,420.854828 
	C98.507980,420.621979 98.301285,420.353577 98.028732,420.227417 
	C96.138268,419.352234 94.234108,418.506592 92.334335,417.651520 
	C94.269058,416.838196 96.153664,415.487823 98.146927,415.301819 
	C108.353386,414.349396 107.089127,413.224304 107.142616,423.022644 
	C107.172401,428.478973 107.147972,433.935577 107.147972,439.222687 
	C111.465607,437.598053 115.730110,435.993408 120.409920,434.325256 
z"/>
<path fill="#E2E5E6" opacity="1.000000" stroke="none" 
	d="
M187.782303,451.208466 
	C187.792374,459.136505 187.792374,466.590271 187.792374,473.897766 
	C192.956207,475.341858 192.956207,475.341858 192.672958,478.837646 
	C186.740646,478.837646 180.802811,478.837646 174.864990,478.837646 
	C174.556198,478.476318 174.247421,478.114990 173.938644,477.753693 
	C175.276749,476.392487 176.614868,475.031250 178.860428,472.746948 
	C178.860428,464.841736 179.095886,455.414825 178.749512,446.009369 
	C178.602158,442.008026 175.711838,439.992523 171.554932,439.966125 
	C163.865921,439.917267 159.695084,443.863708 159.695053,451.347198 
	C159.695023,457.838745 159.523636,464.338501 159.833847,470.815216 
	C159.900223,472.201019 161.677460,473.533112 162.734940,474.834351 
	C163.599365,475.898071 164.565689,476.878998 166.345779,478.845551 
	C158.641602,478.845551 152.687347,478.845551 146.733093,478.845551 
	C146.400848,478.464355 146.068588,478.083130 145.736328,477.701935 
	C147.182098,476.303589 148.627869,474.905273 151.114548,472.500214 
	C151.114548,468.607574 151.114563,463.161438 151.114563,457.715271 
	C151.114563,452.406342 151.114548,447.097443 151.114548,441.613739 
	C149.648148,441.160095 148.215149,441.053772 147.263168,440.321808 
	C146.414230,439.668976 145.675995,438.317596 145.692947,437.287750 
	C145.704300,436.598358 147.032883,435.529602 147.926559,435.333008 
	C150.352219,434.799438 153.030212,433.969208 155.282700,434.540283 
	C157.145264,435.012512 158.543762,437.315094 160.443115,439.081146 
	C162.786041,438.049408 166.133041,436.115631 169.737869,435.074707 
	C180.334732,432.014862 185.963531,435.860779 187.414337,446.759735 
	C187.589691,448.077118 187.655594,449.409027 187.782303,451.208466 
z"/>
<path fill="#E8BD10" opacity="1.000000" stroke="none" 
	d="
M267.972961,471.785797 
	C266.206085,463.301453 268.576782,458.690369 276.216705,455.690979 
	C278.831787,454.664307 281.583008,453.893738 284.339386,453.343201 
	C287.081940,452.795441 289.909088,452.670990 292.608337,452.371002 
	C294.270599,443.430145 291.399292,439.884460 282.873352,440.728119 
	C278.987488,441.112640 275.206757,442.560181 270.915192,443.642334 
	C268.755432,441.688629 268.442566,439.325165 272.102448,438.352020 
	C278.091522,436.759552 284.258759,434.804688 290.337341,434.849152 
	C297.531799,434.901794 300.740723,438.823181 301.009705,446.100403 
	C301.353485,455.400909 301.093109,464.723755 301.093109,474.287170 
	C302.559204,474.632050 304.052795,474.546478 304.570984,475.215942 
	C305.217682,476.051361 305.647827,478.142365 305.157562,478.596375 
	C301.500000,481.983429 294.527008,479.576385 293.483551,474.733948 
	C280.686066,482.341461 273.145477,481.580292 267.972961,471.785797 
M283.572845,474.324554 
	C294.518097,472.349854 294.358856,470.298340 292.278015,456.171844 
	C288.245972,457.302399 283.839294,457.654785 280.560577,459.762115 
	C278.306732,461.210815 276.714722,465.015289 276.459351,467.910736 
	C276.141632,471.513336 278.763702,473.980835 283.572845,474.324554 
z"/>
<path fill="#E5E8E9" opacity="1.000000" stroke="none" 
	d="
M61.291367,435.074280 
	C75.782860,431.536194 85.514961,438.340424 87.266060,452.865234 
	C89.193481,468.852509 79.571945,480.661346 65.167160,479.902405 
	C57.055672,479.474976 51.445938,475.490753 48.533009,467.829620 
	C43.338749,454.168610 48.392921,440.802246 61.291367,435.074280 
M77.943001,463.876740 
	C77.537727,457.954956 77.645302,451.937408 76.562752,446.142120 
	C75.717010,441.614563 72.408028,438.758759 67.245659,438.768890 
	C62.195793,438.778839 59.039955,441.385193 57.562683,445.869476 
	C54.926773,453.870819 55.034107,461.972778 58.496586,469.692322 
	C61.433971,476.241241 70.200310,477.400604 74.538078,471.885773 
	C76.113144,469.883331 76.745087,467.139038 77.943001,463.876740 
z"/>
<path fill="#E9BE10" opacity="1.000000" stroke="none" 
	d="
M480.243073,440.027100 
	C480.973785,446.452362 481.694366,452.526642 482.007080,458.621796 
	C482.270905,463.764496 482.061401,468.931458 482.061401,474.461761 
	C483.183044,474.689819 484.604401,474.564087 485.173767,475.200531 
	C485.872284,475.981293 486.483551,477.993134 486.052551,478.446869 
	C482.920685,481.743896 475.563080,479.685760 474.147034,474.882538 
	C471.985809,476.110870 469.969269,477.468292 467.786896,478.461151 
	C457.751282,483.026947 447.598785,476.941895 448.025665,466.691681 
	C448.246307,461.394409 451.148926,457.755157 455.877380,456.178894 
	C461.638580,454.258331 467.667847,453.141968 473.688080,451.651306 
	C474.745911,442.875793 471.891785,439.707764 462.968719,440.774933 
	C459.248535,441.219849 455.646881,442.655975 451.701233,443.719604 
	C449.702057,441.758087 449.231659,439.958496 452.593323,438.352203 
	C458.860352,435.357574 465.320526,432.926483 472.280731,434.949738 
	C475.093689,435.767487 477.477234,438.062469 480.243073,440.027100 
M464.521912,474.339081 
	C475.439789,472.022308 475.020416,470.638458 473.149719,456.197571 
	C469.121704,457.284515 465.042206,457.950256 461.339294,459.510071 
	C457.816803,460.993866 456.435089,464.275940 457.053741,468.159790 
	C457.652344,471.917847 459.808411,474.050201 464.521912,474.339081 
z"/>
<path fill="#E7BC11" opacity="1.000000" stroke="none" 
	d="
M217.825287,477.181152 
	C219.623917,475.730133 221.430389,474.667938 224.154388,473.066223 
	C224.154388,470.581573 224.154449,467.150421 224.154388,463.719269 
	C224.154221,452.395142 224.115143,441.070770 224.181885,429.747040 
	C224.197983,427.015686 224.132385,424.844971 220.424957,424.763550 
	C219.402359,424.741089 218.419540,422.908325 217.418457,421.906189 
	C217.704758,421.394165 217.991043,420.882172 218.277344,420.370148 
	C224.872437,420.370148 231.468887,420.306549 238.060959,420.447693 
	C238.919083,420.466095 239.754639,421.538391 240.600647,422.122528 
	C239.872116,423.020782 239.074829,424.742798 238.425797,424.688660 
	C232.562820,424.199310 232.797516,427.891632 232.834259,431.971924 
	C232.958511,445.772797 232.881622,459.575531 232.881622,473.637024 
	C239.274689,473.637024 245.356903,473.746155 251.426117,473.514771 
	C252.297943,473.481506 253.400391,471.938110 253.884552,470.863129 
	C254.904617,468.598297 255.759430,466.224304 256.363190,463.815216 
	C257.184967,460.536102 259.001678,459.928070 262.387787,461.548218 
	C261.587219,467.030640 260.756195,472.721680 259.835724,479.025421 
	C251.981522,479.025421 244.207443,479.025452 236.433350,479.025391 
	C231.437408,479.025360 226.438507,479.117889 221.447647,478.958679 
	C220.229279,478.919800 219.037277,478.054993 217.825287,477.181152 
z"/>
<path fill="#E9BE10" opacity="1.000000" stroke="none" 
	d="
M355.020050,435.820190 
	C358.298035,435.131012 361.217926,434.151886 364.139130,434.147797 
	C372.847076,434.135559 378.428131,439.598663 378.980011,448.335266 
	C379.145905,450.961700 379.005646,453.607452 379.005646,456.850647 
	C369.873810,456.850647 361.153931,456.850647 352.005646,456.850647 
	C351.510437,463.230347 352.871429,468.488281 357.579407,471.940765 
	C363.811707,476.511108 370.230347,473.984650 377.743805,471.679138 
	C377.104004,473.135406 376.871918,475.256195 375.757965,475.939728 
	C368.716553,480.260345 361.120911,481.620117 353.422699,477.969971 
	C346.177429,474.534607 343.588348,467.878723 343.048706,460.393097 
	C342.309601,450.140839 344.542450,441.139984 355.020050,435.820190 
M358.589264,452.949951 
	C362.356598,452.949951 366.123932,452.949951 370.225891,452.949951 
	C370.734406,447.876038 371.141449,442.902252 366.836731,440.390594 
	C364.339661,438.933716 359.877686,438.907990 357.181915,440.151001 
	C352.301392,442.401428 351.756378,447.489685 352.021942,452.949921 
	C354.049530,452.949921 355.840881,452.949921 358.589264,452.949951 
z"/>
<path fill="#EABF10" opacity="1.000000" stroke="none" 
	d="
M327.269775,423.444855 
	C326.610931,427.375641 326.152771,430.933960 325.619507,435.075958 
	C329.672607,435.075958 332.927948,435.075958 336.664307,435.075958 
	C336.751740,437.077576 336.818085,438.596649 336.906494,440.620331 
	C333.143372,440.620331 329.869232,440.620331 326.321228,440.620331 
	C326.321228,452.034332 326.321228,462.968872 326.321228,473.460754 
	C328.340759,476.769318 334.594360,472.017700 334.887787,478.754028 
	C326.904083,478.754028 319.295654,478.754028 311.692688,478.754028 
	C311.376770,475.590302 311.376770,475.590302 317.530640,473.913666 
	C317.530640,463.114563 317.530640,452.218903 317.530640,441.276306 
	C317.007507,441.069366 316.572235,440.857635 316.114288,440.722931 
	C314.210480,440.163116 312.299835,439.626404 310.391663,439.081238 
	C312.111267,437.993500 314.087067,437.156372 315.471710,435.740936 
	C316.638123,434.548492 317.672241,432.730530 317.808502,431.109070 
	C318.538116,422.427338 325.074524,415.052490 333.319489,414.012268 
	C340.532654,413.102264 341.416473,414.081146 340.338226,420.223602 
	C335.715546,421.247009 331.592987,422.159698 327.269775,423.444855 
z"/>
<path fill="#E5E9EA" opacity="1.000000" stroke="none" 
	d="
M25.934036,487.961121 
	C23.036661,489.593750 20.526411,491.302612 17.757557,492.275574 
	C16.440964,492.738220 14.631614,491.798584 12.756558,490.680389 
	C22.930399,486.019775 24.343042,477.429535 24.453686,468.291840 
	C24.608850,455.477448 24.502195,442.659485 24.711603,429.846375 
	C24.765373,426.556427 23.923393,424.999084 20.383776,424.817017 
	C19.046440,424.748230 17.792639,423.055328 16.500757,422.102753 
	C16.785870,421.619324 17.070980,421.135925 17.356092,420.652496 
	C24.764215,420.652496 32.172337,420.652496 39.578884,420.652496 
	C40.118317,424.047943 40.118317,424.047943 33.098328,426.003906 
	C33.098328,435.807190 33.114395,445.752563 33.091976,455.697876 
	C33.079594,461.190277 33.075623,466.684448 32.935272,472.174438 
	C32.780407,478.232300 30.881737,483.596741 25.934036,487.961121 
z"/>
<path fill="#E4BA11" opacity="1.000000" stroke="none" 
	d="
M435.075867,415.338623 
	C435.552582,421.077454 435.841370,426.536194 435.868713,431.996246 
	C435.938568,445.955444 435.891998,459.915253 435.891998,472.735596 
	C437.550385,476.191956 443.543671,472.819336 442.148529,478.810211 
	C435.203064,478.810211 428.438812,478.810211 421.674561,478.810211 
	C421.352142,478.476410 421.029694,478.142639 420.707275,477.808838 
	C421.732422,476.819763 422.734497,475.805206 423.788910,474.848358 
	C424.960846,473.784790 427.211884,472.787079 427.225372,471.738007 
	C427.443207,454.789795 427.379395,437.837952 427.379395,421.207153 
	C426.751617,420.675323 426.533539,420.410400 426.253357,420.266327 
	C424.541321,419.385803 422.815155,418.532684 421.093719,417.670410 
	C422.858398,416.859039 424.556183,415.631073 426.403503,415.334412 
	C429.136230,414.895630 431.975159,415.118195 435.075867,415.338623 
z"/>
<path fill="#EDC110" opacity="1.000000" stroke="none" 
	d="
M391.881683,471.572937 
	C391.885132,461.314453 391.885132,451.516754 391.885132,441.636139 
	C390.419800,441.180511 389.175354,441.069550 388.296967,440.444275 
	C387.384003,439.794373 386.224121,438.608124 386.281494,437.728851 
	C386.337891,436.864990 387.688751,435.929596 388.661224,435.336731 
	C389.303680,434.945038 390.281952,435.110138 391.108368,435.013275 
	C398.782562,434.113708 398.620056,432.736176 399.217010,441.723511 
	C401.776398,439.790314 404.011627,437.427216 406.755432,436.219299 
	C409.497498,435.012115 412.748413,434.960754 415.776245,434.402740 
	C416.222412,437.055176 416.668610,439.707611 416.968811,441.492401 
	C411.789734,442.636078 407.309601,443.416199 402.985107,444.714691 
	C401.772278,445.078827 400.215271,446.945618 400.181152,448.161438 
	C399.939270,456.779816 400.052460,465.408173 400.052460,473.205078 
	C402.905121,476.913025 409.086914,471.974762 410.196747,478.749146 
	C401.992371,478.749146 394.230194,478.749146 384.588165,478.749146 
	C386.478058,476.841309 387.370239,475.857727 388.351074,474.972290 
	C389.486084,473.947662 390.699097,473.009460 391.881683,471.572937 
z"/>
<path fill="#302F2B" opacity="1.000000" stroke="none" 
	d="
M283.153870,474.295959 
	C278.763702,473.980835 276.141632,471.513336 276.459351,467.910736 
	C276.714722,465.015289 278.306732,461.210815 280.560577,459.762115 
	C283.839294,457.654785 288.245972,457.302399 292.278015,456.171844 
	C294.358856,470.298340 294.518097,472.349854 283.153870,474.295959 
z"/>
<path fill="#2F2F2F" opacity="1.000000" stroke="none" 
	d="
M77.875175,464.304993 
	C76.745087,467.139038 76.113144,469.883331 74.538078,471.885773 
	C70.200310,477.400604 61.433971,476.241241 58.496586,469.692322 
	C55.034107,461.972778 54.926773,453.870819 57.562683,445.869476 
	C59.039955,441.385193 62.195793,438.778839 67.245659,438.768890 
	C72.408028,438.758759 75.717010,441.614563 76.562752,446.142120 
	C77.645302,451.937408 77.537727,457.954956 77.875175,464.304993 
z"/>
<path fill="#302F2B" opacity="1.000000" stroke="none" 
	d="
M464.103088,474.317139 
	C459.808411,474.050201 457.652344,471.917847 457.053741,468.159790 
	C456.435089,464.275940 457.816803,460.993866 461.339294,459.510071 
	C465.042206,457.950256 469.121704,457.284515 473.149719,456.197571 
	C475.020416,470.638458 475.439789,472.022308 464.103088,474.317139 
z"/>
<path fill="#31302B" opacity="1.000000" stroke="none" 
	d="
M358.110718,452.949951 
	C355.840881,452.949921 354.049530,452.949921 352.021942,452.949921 
	C351.756378,447.489685 352.301392,442.401428 357.181915,440.151001 
	C359.877686,438.907990 364.339661,438.933716 366.836731,440.390594 
	C371.141449,442.902252 370.734406,447.876038 370.225891,452.949951 
	C366.123932,452.949951 362.356598,452.949951 358.110718,452.949951 
z"/>
</svg>